<?xml version="1.0" encoding="iso-8859-1"?>
<!-- Generator: Adobe Illustrator 19.0.0, SVG Export Plug-In . SVG Version: 6.00 Build 0)  -->
<svg version="1.1" id="Capa_1" xmlns="http://www.w3.org/2000/svg" xmlns:xlink="http://www.w3.org/1999/xlink" x="0px" y="0px"
	 viewBox="0 0 480.115 480.115" style="enable-background:new 0 0 480.115 480.115;" xml:space="preserve">
<g>
	<g>
		<path d="M337.161,436.839c-32.255-3.375-64.673-4.959-97.104-4.744c-32.431-0.215-64.849,1.368-97.104,4.744
			c-39.224,4.616-46.896,10.552-46.896,19.256c0,8.704,7.672,14.64,46.896,19.256c32.255,3.375,64.673,4.959,97.104,4.744
			c32.431,0.215,64.849-1.369,97.104-4.744c39.224-4.616,46.896-10.552,46.896-19.256
			C384.057,447.391,376.385,441.456,337.161,436.839z M240.057,464.096c-39.274,0.779-78.54-1.898-117.344-8
			c38.804-6.102,78.07-8.779,117.344-8c39.274-0.779,78.54,1.898,117.344,8C318.597,462.198,279.331,464.875,240.057,464.096z"/>
	</g>
</g>
<g>
	<g>
		<path d="M344.057,272.096h-32v-24c0-4.418-3.582-8-8-8h-16.8l-12.848-122.088c29.823-18.972,38.62-58.528,19.647-88.351
			s-58.528-38.62-88.351-19.647c-29.823,18.972-38.62,58.528-19.647,88.351c5.031,7.909,11.739,14.616,19.647,19.647
			l-12.848,122.088h-16.8c-4.418,0-8,3.582-8,8v24h-32c-22.08,0.026-39.974,17.92-40,40v48c0,4.418,3.582,8,8,8h24.8
			c3.827,18.611,20.199,31.976,39.2,32h144c19.001-0.024,35.373-13.389,39.2-32h24.8c4.418,0,8-3.582,8-8v-48
			C384.031,290.015,366.138,272.122,344.057,272.096z M192.057,64.096c0-26.51,21.49-48,48-48c26.51,0,48,21.49,48,48
			s-21.49,48-48,48C213.559,112.069,192.084,90.594,192.057,64.096z M271.169,240.096h-62.224l12.088-114.888
			c12.39,3.851,25.658,3.851,38.048,0L271.169,240.096z M184.057,256.096h112v16h-112V256.096z M312.057,384.096h-144
			c-10.168-0.012-19.229-6.418-22.632-16h189.264C331.287,377.677,322.225,384.083,312.057,384.096z M368.057,352.096h-256v-40
			c0-13.255,10.745-24,24-24h208c13.255,0,24,10.745,24,24V352.096z"/>
	</g>
</g>
<g>
	<g>
		<path d="M152.057,320.096h-16c-4.418,0-8,3.582-8,8s3.582,8,8,8h16c4.418,0,8-3.582,8-8S156.476,320.096,152.057,320.096z"/>
	</g>
</g>
<g>
	<g>
		<path d="M304.057,320.096h-120c-4.418,0-8,3.582-8,8s3.582,8,8,8h120c4.418,0,8-3.582,8-8S308.476,320.096,304.057,320.096z"/>
	</g>
</g>
<g>
</g>
<g>
</g>
<g>
</g>
<g>
</g>
<g>
</g>
<g>
</g>
<g>
</g>
<g>
</g>
<g>
</g>
<g>
</g>
<g>
</g>
<g>
</g>
<g>
</g>
<g>
</g>
<g>
</g>
</svg>
